<svg xmlns="http://www.w3.org/2000/svg" viewBox="0 0 180 180" width="180" height="180">
  <!-- Outer skin -->
  <circle cx="90" cy="90" r="82" fill="#8B6B3D" stroke="#1A1A1A" stroke-width="4"/>
  <!-- Flesh -->
  <circle cx="90" cy="90" r="72" fill="#49AD77"/>
  <!-- White center -->
  <ellipse cx="90" cy="90" rx="18" ry="18" fill="#F5F5DC"/>
  <!-- Seed rays and seeds -->
  <g stroke="#1A1A1A" stroke-width="1.5" opacity="0.25">
    <line x1="90" y1="90" x2="90"  y2="22"/>
    <line x1="90" y1="90" x2="148" y2="56"/>
    <line x1="90" y1="90" x2="148" y2="124"/>
    <line x1="90" y1="90" x2="90"  y2="158"/>
    <line x1="90" y1="90" x2="32"  y2="124"/>
    <line x1="90" y1="90" x2="32"  y2="56"/>
    <line x1="90" y1="90" x2="118" y2="26"/>
    <line x1="90" y1="90" x2="154" y2="90"/>
    <line x1="90" y1="90" x2="118" y2="154"/>
    <line x1="90" y1="90" x2="62"  y2="154"/>
    <line x1="90" y1="90" x2="26"  y2="90"/>
    <line x1="90" y1="90" x2="62"  y2="26"/>
  </g>
  <!-- Seeds -->
  <ellipse cx="90"  cy="32"  rx="5" ry="8" fill="#1A1A1A" transform="rotate(0,90,32)"/>
  <ellipse cx="142" cy="60"  rx="5" ry="8" fill="#1A1A1A" transform="rotate(60,142,60)"/>
  <ellipse cx="142" cy="120" rx="5" ry="8" fill="#1A1A1A" transform="rotate(120,142,120)"/>
  <ellipse cx="90"  cy="148" rx="5" ry="8" fill="#1A1A1A" transform="rotate(0,90,148)"/>
  <ellipse cx="38"  cy="120" rx="5" ry="8" fill="#1A1A1A" transform="rotate(-120,38,120)"/>
  <ellipse cx="38"  cy="60"  rx="5" ry="8" fill="#1A1A1A" transform="rotate(-60,38,60)"/>
  <ellipse cx="116" cy="28"  rx="4" ry="7" fill="#1A1A1A" transform="rotate(30,116,28)"/>
  <ellipse cx="152" cy="90"  rx="4" ry="7" fill="#1A1A1A" transform="rotate(90,152,90)"/>
  <ellipse cx="116" cy="152" rx="4" ry="7" fill="#1A1A1A" transform="rotate(-30,116,152)"/>
  <ellipse cx="64"  cy="152" rx="4" ry="7" fill="#1A1A1A" transform="rotate(30,64,152)"/>
  <ellipse cx="28"  cy="90"  rx="4" ry="7" fill="#1A1A1A" transform="rotate(90,28,90)"/>
  <ellipse cx="64"  cy="28"  rx="4" ry="7" fill="#1A1A1A" transform="rotate(-30,64,28)"/>
  <!-- Highlight -->
  <ellipse cx="62" cy="58" rx="18" ry="22" fill="white" opacity="0.2" transform="rotate(-20,62,58)"/>
</svg>